# xmcd
#
# Track frame offsets:
#	150
#	21150
#	39850
#	51452
#	71470
#	87957
#	106500
#	125242
#	139540
#	155245
#	172172
#	190280
#	204915
#	226577
#	247422
#
# Disc length: 3576 seconds
#
# Revision: 1
# Processed by: cddbd v1.5.2PL0 Copyright (c) Steve Scherf et al.
# Submitted via: audiograbber 1.83.01
#
DISCID=d00df60f
DTITLE=Various Artist - SD068
DYEAR=1900
DGENRE=Country
TTITLE0=tim mcgraw - my best friend
TTITLE1=dixie chicks - cowboy taks me away
TTITLE2=brooks and dunn - berr thirty
TTITLE3=mark wills - back at one
TTITLE4=montgomery genrty - daddy won't sell the farm
TTITLE5=lee ann womack - don't tell me
TTITLE6=deana carter - ruby brown
TTITLE7=aaron tippin - what this country needs
TTITLE8=steve holy - don't make me beg
TTITLE9=kenny rogers - buy me a rose
TTITLE10=john berry - power windows
TTITLE11=wynonna - can't nobody love you(like i do)
TTITLE12=martina mcbride - love's the only house
TTITLE13=barbara streisand W/vince - if you ever leave me(female)
TTITLE14=vince gill w/ barbara - if you ever eave me(male)
EXTD=MediaType: Karaoke CD+G Producer: StarDisc
EXTT0=
EXTT1=
EXTT2=
EXTT3=
EXTT4=
EXTT5=
EXTT6=
EXTT7=
EXTT8=
EXTT9=
EXTT10=
EXTT11=
EXTT12=
EXTT13=
EXTT14=
PLAYORDER=
